<!-- Generator: Adobe Illustrator 24.3.0, SVG Export Plug-In  -->
<svg version="1.1" xmlns="http://www.w3.org/2000/svg" xmlns:xlink="http://www.w3.org/1999/xlink" x="0px" y="0px"
	 width="172.719px" height="144.641px" viewBox="0 0 172.719 144.641"
	 style="overflow:visible;enable-background:new 0 0 172.719 144.641;" xml:space="preserve">
<style type="text/css">
	.st0{fill:url(#SVGID_1_);}
	.st1{fill:url(#SVGID_2_);}
	.st2{fill:url(#SVGID_3_);}
	.st3{fill:url(#SVGID_4_);}
	.st4{fill:url(#SVGID_5_);}
	.st5{fill:url(#SVGID_6_);}
</style>
<defs>
</defs>
<g>
	<g>
		<linearGradient id="SVGID_1_" gradientUnits="userSpaceOnUse" x1="-73.2741" y1="29.5187" x2="118.3197" y2="192.7282">
			<stop  offset="0" style="stop-color:#F6B200"/>
			<stop  offset="0.1245" style="stop-color:#F3A703"/>
			<stop  offset="0.3435" style="stop-color:#EB8A0B"/>
			<stop  offset="0.6311" style="stop-color:#DE5A19"/>
			<stop  offset="0.9731" style="stop-color:#CC182B"/>
			<stop  offset="1" style="stop-color:#CA132D"/>
		</linearGradient>
		<path class="st0" d="M42.523,125.527c-1.472,0-2.641,1.169-2.641,2.641c0,1.48,1.169,2.641,2.641,2.641
			c1.48,0,2.681-1.161,2.681-2.641C45.203,126.696,44.002,125.527,42.523,125.527z"/>
	</g>
	<g>
		<linearGradient id="SVGID_2_" gradientUnits="userSpaceOnUse" x1="-19.9538" y1="-33.0747" x2="171.6399" y2="130.1348">
			<stop  offset="0" style="stop-color:#F6B200"/>
			<stop  offset="0.1245" style="stop-color:#F3A703"/>
			<stop  offset="0.3435" style="stop-color:#EB8A0B"/>
			<stop  offset="0.6311" style="stop-color:#DE5A19"/>
			<stop  offset="0.9731" style="stop-color:#CC182B"/>
			<stop  offset="1" style="stop-color:#CA132D"/>
		</linearGradient>
		<path class="st1" d="M170.118,0c-11.772,0-22.065,8.002-25.016,19.345l-1.44,5.433h-28.309H87.425H58.137h-27.92H12.002
			c-3.731,0-7.23,1.71-9.482,4.661C0.23,32.39-0.55,36.2,0.389,39.851l13.745,52.666c1.36,5.202,6.141,8.933,11.574,8.933h15.384
			h20.816h21.787h20.785h19.226l-2.72,10.412c-0.66-0.08-1.32-0.159-1.981-0.159c-8.201,0-14.954,6.061-16.235,13.825H58.766
			c-1.289-7.763-8.042-13.825-16.243-13.825c-9.044,0-16.426,7.461-16.426,16.465c0,9.092,7.382,16.473,16.426,16.473
			c8.201,0,14.954-6.061,16.243-13.833h44.003c1.281,7.771,8.034,13.833,16.235,13.833c9.044,0,16.426-7.382,16.426-16.473
			c0-6.523-3.882-12.194-9.434-14.835l3.611-13.825l0,0l0.27-1.01l20.276-77.833c2.37-9.012,10.563-15.384,19.965-15.384
			c1.432,0,2.601-1.161,2.601-2.641C172.719,1.241,171.55,0,170.118,0z M42.523,139.431c-6.133,0-11.184-5.043-11.184-11.263
			c0-6.133,5.051-11.184,11.184-11.184c6.101,0,11.072,4.892,11.192,10.953c0,0-0.04,0.159-0.04,0.231c0,0.08,0.04,0.159,0.04,0.239
			C53.595,134.46,48.624,139.431,42.523,139.431z M130.187,128.168c0,6.22-5.011,11.263-11.184,11.263
			c-6.181,0-11.224-5.043-11.224-11.263c0-6.133,5.043-11.184,11.224-11.184C125.176,116.984,130.187,122.035,130.187,128.168z
			 M131.277,72.4h-20.124l2.84-18.565h22.097l-4.232,16.235L131.277,72.4z M9.473,53.835h22.105L34.449,72.4H14.293L9.473,53.835z
			 M36.891,53.835h20.005l1.01,18.565H39.731L36.891,53.835z M62.138,53.835h21.286L82.454,72.4H63.109L62.138,53.835z
			 M88.666,53.835h20.005l-2.84,18.565H87.656L88.666,53.835z M137.45,48.625h-22.678l2.832-18.565h24.698L137.45,48.625z
			 M109.482,48.625H88.904l1.01-18.565h22.368L109.482,48.625z M84.665,30.059l-0.97,18.565H61.868l-0.97-18.565H84.665z
			 M55.655,30.059l0.97,18.565H36.08l-2.8-18.565H55.655z M6.641,32.7c1.281-1.702,3.261-2.641,5.361-2.641h15.956l2.84,18.565
			H8.113L5.472,38.531C4.931,36.51,5.36,34.339,6.641,32.7z M19.185,91.196l-3.5-13.514h19.544l2.832,18.565H25.707
			C22.637,96.247,19.964,94.147,19.185,91.196z M40.51,77.682h17.627l1.01,18.565H43.342L40.51,77.682z M64.357,96.247l-0.97-18.565
			h18.756l-0.931,18.565H64.357z M86.415,96.247l1.01-18.565h17.635l-2.84,18.565H86.415z M107.502,96.247l2.84-18.565h19.576
			l-4.86,18.565H107.502z"/>
	</g>
	<g>
		<linearGradient id="SVGID_3_" gradientUnits="userSpaceOnUse" x1="-41.1252" y1="-8.2213" x2="150.4685" y2="154.9882">
			<stop  offset="0" style="stop-color:#F6B200"/>
			<stop  offset="0.1245" style="stop-color:#F3A703"/>
			<stop  offset="0.3435" style="stop-color:#EB8A0B"/>
			<stop  offset="0.6311" style="stop-color:#DE5A19"/>
			<stop  offset="0.9731" style="stop-color:#CC182B"/>
			<stop  offset="1" style="stop-color:#CA132D"/>
		</linearGradient>
		<path class="st2" d="M116.323,128.168c0,1.48,1.201,2.641,2.681,2.641c1.432,0,2.641-1.161,2.641-2.641
			c0-1.472-1.209-2.641-2.641-2.641C117.524,125.527,116.323,126.696,116.323,128.168z"/>
	</g>
</g>
</svg>